<svg id="Layer_1" height="512" viewBox="0 0 256 256" width="512" xmlns="http://www.w3.org/2000/svg"><g><g><path d="m158.566 78.204c-60.702-35.046-120.882-40.629-137.004-12.704-17.959 31.108 27.345 87.252 95.822 121.017 4.119-1.584 8.269-3.328 12.432-5.204-31.996-14.415-67.344-38.481-88.02-66.556-13.226-17.957-17.445-34.088-11.574-44.257 7.52-13.024 29.098-13.783 44.115-12.107 49.501 5.527 113.967 42.751 143.498 82.849 13.226 17.958 17.444 34.089 11.573 44.258s-21.95 14.581-44.115 12.107c-13.333-1.489-27.978-5.295-43.036-11.086-4.174 2.059-8.326 3.972-12.443 5.743 24.558 10.566 47.846 15.994 66.79 15.994 19.609 0 34.568-5.814 41.464-17.758 16.122-27.923-18.8-77.25-79.502-112.296z" fill="#a4c9ff"/></g><g><path d="m174.277 87.969-.001-.001z" fill="#4671c6"/></g><g><path d="m129.816 181.313.002.001z" fill="#a4c9ff"/></g><g><path d="m196.605 210.258c-19.644 0-43.013-5.586-67.581-16.157-.734-.315-1.209-1.038-1.209-1.837s.476-1.521 1.209-1.837c4.117-1.771 8.271-3.688 12.348-5.699.501-.248 1.082-.273 1.603-.073 15.11 5.811 29.423 9.5 42.541 10.965 21.336 2.383 36.706-1.671 42.161-11.119 5.455-9.449 1.281-24.783-11.452-42.072-29.283-39.761-93.033-76.567-142.11-82.047-10.095-1.127-34.413-2.3-42.161 11.119-5.455 9.449-1.281 24.783 11.452 42.072 18.369 24.942 50.979 49.585 87.231 65.918.717.323 1.178 1.037 1.178 1.823s-.461 1.5-1.178 1.823c-4.28 1.929-8.498 3.694-12.535 5.247-.521.2-1.103.173-1.603-.073-49.447-24.382-89.097-61.952-98.664-93.488-3.545-11.688-2.875-21.89 1.995-30.323 8.21-14.221 27.281-20.705 53.701-18.253 25.877 2.399 56.431 13.134 86.035 30.225 29.603 17.091 54.176 38.185 69.192 59.396 15.331 21.654 19.252 41.412 11.042 55.632-7.083 12.271-22.02 18.758-43.195 18.758zm-61.729-18.039c22.497 9.196 43.758 14.04 61.729 14.04 19.664 0 33.403-5.795 39.732-16.758 7.384-12.789 3.533-31.016-10.843-51.321-14.69-20.75-38.814-41.434-67.928-58.243s-59.089-27.359-84.404-29.707c-24.777-2.297-42.484 3.48-49.868 16.27-4.293 7.437-4.842 16.576-1.63 27.162 9.216 30.378 47.672 66.744 95.819 90.673 2.433-.948 4.93-1.972 7.464-3.062-35.224-16.585-66.692-40.793-84.761-65.329-13.719-18.628-17.982-35.555-11.695-46.444 8.928-15.463 35.193-14.308 46.069-13.095 50.036 5.587 115.031 43.113 144.887 83.651 13.719 18.627 17.981 35.556 11.695 46.444s-23.076 15.659-46.069 13.095c-13.219-1.476-27.586-5.141-42.715-10.895-2.477 1.212-4.979 2.388-7.482 3.519z" fill="#3762cc"/></g><g><circle cx="174.276" cy="87.969" fill="#3762cc" r="2"/></g><g><circle cx="129.817" cy="181.314" fill="#3762cc" r="2"/></g><g><circle cx="24.001" cy="70.486" fill="#6bdddd" r="14.1"/></g><g><path d="m24.001 86.586c-8.877 0-16.1-7.223-16.1-16.1s7.223-16.1 16.1-16.1 16.1 7.223 16.1 16.1-7.222 16.1-16.1 16.1zm0-28.2c-6.672 0-12.1 5.428-12.1 12.1s5.428 12.1 12.1 12.1 12.1-5.428 12.1-12.1-5.428-12.1-12.1-12.1z" fill="#3762cc"/></g><g><g><path d="m187.316 128-.601-18.488c-3.433-2.777-7.021-5.5-10.728-8.169.869 8.636 1.329 17.559 1.329 26.656 0 24.201-3.172 47.222-9.043 66.61 3.35.783 6.646 1.443 9.88 1.981 6.429-21.976 9.163-45.303 9.163-68.59z" fill="#4671c6"/></g><g><path d="m165.049 204.156c-.859 2.292-1.748 4.537-2.691 6.693-8.939 20.432-20.801 32.151-32.542 32.151-11.742 0-23.604-11.719-32.542-32.151-5.378-12.292-9.404-26.88-11.918-42.817-3.868-2.584-7.603-5.221-11.194-7.9 6.368 54.037 28.54 92.868 55.654 92.868 18.51 0 34.715-18.099 45.163-46.774-3.24-.57-6.554-1.262-9.93-2.07z" fill="#4671c6"/></g></g><g><g><path d="m178.155 198.591c-.109 0-.219-.009-.33-.027-3.279-.545-6.646-1.22-10.007-2.006-.539-.125-1-.469-1.277-.947-.276-.479-.342-1.051-.182-1.58 5.86-19.352 8.957-42.185 8.957-66.031 0-8.854-.444-17.756-1.319-26.456-.079-.783.309-1.539.99-1.932.681-.394 1.529-.352 2.168.109 3.816 2.747 7.456 5.518 10.817 8.237.452.366.722.909.741 1.49l.602 18.487c0 .021.001.043.001.065 0 24.918-3.11 48.184-9.244 69.153-.252.864-1.043 1.438-1.917 1.438zm-7.358-5.459c1.989.438 3.973.833 5.93 1.184 5.698-20.147 8.587-42.436 8.589-66.283l-.571-17.537c-2.028-1.626-4.156-3.271-6.36-4.915.618 7.41.931 14.931.931 22.42 0 23.395-2.941 45.858-8.519 65.131z" fill="#3762cc"/></g><g><path d="m129.816 255c-27.806 0-50.97-38.03-57.641-94.634-.093-.793.294-1.566.986-1.966s1.555-.349 2.196.129c3.56 2.655 7.297 5.293 11.109 7.84.464.31.777.8.864 1.352 2.523 15.995 6.485 30.235 11.775 42.326 8.607 19.671 19.8 30.953 30.711 30.953 10.91 0 22.104-11.282 30.709-30.953.838-1.917 1.706-4.073 2.651-6.593.354-.945 1.354-1.479 2.338-1.243 3.34.799 6.642 1.487 9.811 2.045.583.103 1.09.458 1.386.97s.35 1.129.147 1.685c-11.135 30.561-28.281 48.089-47.042 48.089zm-53.083-90.508c7.011 51.172 28.534 86.508 53.083 86.508 16.542 0 31.939-15.721 42.456-43.239-1.96-.376-3.958-.797-5.975-1.259-.734 1.903-1.428 3.599-2.106 5.148-9.273 21.194-21.802 33.35-34.375 33.35-12.574 0-25.103-12.156-34.375-33.35-5.331-12.185-9.341-26.46-11.923-42.443-2.297-1.544-4.566-3.122-6.785-4.715z" fill="#3762cc"/></g></g><g><circle cx="103.217" cy="230.667" fill="#ffea92" r="14.1"/></g><g><path d="m103.217 246.767c-8.877 0-16.1-7.223-16.1-16.1s7.223-16.1 16.1-16.1 16.1 7.222 16.1 16.1-7.222 16.1-16.1 16.1zm0-28.2c-6.672 0-12.1 5.428-12.1 12.1s5.428 12.1 12.1 12.1 12.1-5.428 12.1-12.1-5.428-12.1-12.1-12.1z" fill="#3762cc"/></g><g><path d="m238.069 65.5c-9.255-16.03-33.032-21.014-63.091-15.725 1.126 3.091 2.185 6.306 3.174 9.634h-.001c6.132-1.02 12.181-1.689 18.638-1.689 16.193 0 27.82 4.467 32.62 12.78 5.871 10.168 1.652 26.3-11.573 44.258-48.285 65.562-167.465 105.641-187.614 70.742-5.871-10.169-1.652-26.3 11.573-44.258 1.395-1.894 2.895-3.787 4.45-5.676-2.388-2.52-4.643-5.045-6.757-7.566l-2.594 3.181c-17.668 22.286-24.167 44.017-15.333 59.319 6.896 11.945 21.85 17.758 41.464 17.758 81.5 0 203.166-94.047 175.044-142.758z" fill="#e0ebfc"/></g><g><path d="m63.026 210.258c-21.174 0-36.111-6.486-43.196-18.758-8.92-15.45-3.271-37.888 15.497-61.562l2.612-3.202c.377-.462.94-.732 1.536-.736h.014c.591 0 1.152.262 1.533.715 2.078 2.479 4.324 4.994 6.675 7.475.694.732.734 1.867.093 2.646-1.704 2.072-3.138 3.901-4.384 5.592-12.733 17.289-16.906 32.623-11.451 42.072 4.037 6.992 12.947 11.064 25.768 11.778 43.345 2.406 122.036-33.189 158.503-82.706 12.733-17.289 16.907-32.623 11.452-42.072-4.386-7.597-15.355-11.78-30.888-11.78-5.675 0-11.493.528-18.31 1.662-.994.17-1.958-.436-2.246-1.404-.97-3.271-2.025-6.473-3.134-9.519-.203-.556-.149-1.172.147-1.685.295-.512.803-.867 1.385-.97 32.038-5.637 55.79.449 65.17 16.695 7.159 12.399 5.52 28.345-4.739 46.114-13.193 22.851-40.576 48.102-73.25 67.546-34.279 20.4-70.285 32.099-98.787 32.099zm-23.504-79.134-1.078 1.321c-17.678 22.298-23.206 43.102-15.15 57.055 6.33 10.963 20.068 16.758 39.732 16.758 62.149 0 143.037-53.417 168.572-97.644 6.627-11.478 12.829-28.102 4.739-42.114-8.271-14.326-29.584-19.799-58.676-15.148.657 1.891 1.292 3.833 1.899 5.805 6.304-.979 11.819-1.437 17.229-1.437 17.022 0 29.222 4.894 34.352 13.78 6.287 10.888 2.024 27.816-11.695 46.444-17.442 23.684-45.296 45.784-78.43 62.229-30.34 15.059-61.556 23.324-83.517 22.098-14.233-.792-24.265-5.554-29.009-13.771-6.287-10.889-2.024-27.816 11.695-46.444 1.006-1.366 2.127-2.815 3.404-4.397-1.4-1.509-2.76-3.025-4.067-4.535z" fill="#3762cc"/></g><g><circle cx="231.999" cy="65.085" fill="#f9a7a7" r="14.1"/></g><g><path d="m231.999 81.185c-8.877 0-16.1-7.223-16.1-16.1s7.223-16.1 16.1-16.1 16.1 7.222 16.1 16.1-7.223 16.1-16.1 16.1zm0-28.2c-6.672 0-12.1 5.428-12.1 12.1s5.428 12.1 12.1 12.1 12.1-5.428 12.1-12.1-5.429-12.1-12.1-12.1z" fill="#3762cc"/></g><g><path d="m72.918 146.488c3.433 2.777 7.021 5.5 10.728 8.169-.869-8.636-1.329-17.56-1.329-26.657 0-31.379 5.313-60.802 14.958-82.849 8.938-20.432 20.799-32.151 32.541-32.151 11.741 0 23.603 11.719 32.542 32.151 5.378 12.292 9.404 26.88 11.918 42.817 3.868 2.584 7.603 5.221 11.194 7.9-6.367-54.036-28.539-92.868-55.654-92.868-32.243 0-57.5 54.907-57.5 125z" fill="#4671c6"/></g><g><path d="m83.646 156.657c-.411 0-.821-.126-1.168-.377-3.816-2.747-7.456-5.518-10.817-8.237-.452-.366-.722-.91-.741-1.49l-.601-18.488c-.001-34.248 5.98-66.076 16.841-89.686 11.086-24.104 26.236-37.379 42.656-37.379 27.806 0 50.97 38.031 57.641 94.635.093.793-.294 1.566-.986 1.966s-1.555.349-2.196-.129c-3.57-2.663-7.308-5.3-11.109-7.84-.464-.31-.778-.8-.865-1.352-2.523-15.994-6.485-30.235-11.775-42.327-8.606-19.671-19.799-30.953-30.71-30.953s-22.104 11.282-30.709 30.953c-9.538 21.8-14.791 50.939-14.791 82.047 0 8.858.444 17.759 1.319 26.457.079.783-.309 1.539-.99 1.932-.31.179-.655.268-.999.268zm-8.759-11.152c2.028 1.626 4.156 3.271 6.361 4.915-.619-7.408-.931-14.929-.931-22.42 0-31.648 5.372-61.355 15.125-83.65 9.272-21.194 21.801-33.35 34.374-33.35s25.102 12.155 34.375 33.35c5.331 12.186 9.341 26.462 11.923 42.443 2.295 1.543 4.564 3.121 6.786 4.716-7.011-51.173-28.534-86.509-53.084-86.509-14.768 0-28.627 12.448-39.024 35.051-10.625 23.097-16.476 54.331-16.476 87.949z" fill="#3762cc"/></g><g><g><path d="m46.246 120.434s5.016 6.003 6.601 7.511c3.163-3.614 32.308-33.41 76.747-53.36-4.088-1.837-8.163-3.547-12.209-5.103-27.807 13.663-53.247 32.073-71.139 50.952z" fill="#e0ebfc"/></g><g><path d="m129.852 63.751c4.054 1.745 8.143 3.63 12.252 5.654 8.298-3.144 17.038-5.882 26.166-8.015-.997-3.294-2.074-6.476-3.225-9.546-11.766 2.875-23.612 6.947-35.193 11.907z" fill="#e0ebfc"/></g><g><path d="m168.272 61.39-.002.001z" fill="#e0ebfc"/></g></g><g><g><path d="m52.846 129.945c-.512 0-1.006-.197-1.379-.551-1.647-1.568-6.548-7.429-6.756-7.678-.651-.779-.615-1.921.083-2.658 18.459-19.477 43.926-37.721 71.708-51.37.499-.246 1.079-.272 1.6-.072 3.969 1.527 8.111 3.258 12.311 5.145.718.323 1.18 1.037 1.18 1.825s-.462 1.501-1.181 1.824c-46.968 21.085-75.792 52.544-76.062 52.853-.359.41-.87.656-1.414.681-.029.001-.06.001-.09.001zm-3.914-9.425c1.167 1.377 2.728 3.198 3.918 4.52 6.364-6.534 32.489-31.846 71.866-50.412-2.455-1.052-4.875-2.043-7.235-2.963-26.444 13.097-50.691 30.382-68.549 48.855z" fill="#3762cc"/></g><g><path d="m142.104 71.405c-.303 0-.605-.069-.883-.206-4.049-1.994-8.141-3.881-12.16-5.611-.734-.316-1.21-1.039-1.209-1.838 0-.8.478-1.522 1.212-1.837 12.034-5.154 23.98-9.196 35.506-12.012.985-.239 1.992.293 2.347 1.241 1.173 3.128 2.272 6.381 3.267 9.669.16.529.094 1.101-.182 1.579-.276.479-.739.822-1.277.948-8.592 2.008-17.311 4.679-25.912 7.937-.229.087-.469.13-.709.13zm-7.184-7.603c2.426 1.097 4.863 2.243 7.288 3.427 7.807-2.922 15.704-5.369 23.519-7.286-.614-1.935-1.263-3.849-1.94-5.724-9.405 2.391-19.089 5.606-28.867 9.583z" fill="#3762cc"/></g><g><path d="m168.27 63.391c-1.104 0-2-.896-2-2 0-.855.537-1.585 1.292-1.871.712-.27 1.551-.118 2.125.456.391.39.586.902.586 1.414s-.195 1.024-.586 1.414c-.376.375-.887.587-1.417.587z" fill="#3762cc"/></g></g></g></svg>